<svg width="302" height="83" viewBox="0 0 302 83" fill="none" xmlns="http://www.w3.org/2000/svg">
<mask id="path-1-inside-1_38_3033" fill="white">
<path d="M0 55C0 24.6243 24.6243 0 55 0H247C277.376 0 302 24.6243 302 55V63C302 74.0457 293.046 83 282 83H20C8.95431 83 0 74.0457 0 63V55Z"/>
</mask>
<path d="M0 55C0 24.6243 24.6243 0 55 0H247C277.376 0 302 24.6243 302 55V63C302 74.0457 293.046 83 282 83H20C8.95431 83 0 74.0457 0 63V55Z" fill="black"/>
<path d="M67.8864 37.2955H64.3409C64.2045 36.5379 63.9508 35.8712 63.5795 35.2955C63.2083 34.7197 62.7538 34.2311 62.2159 33.8295C61.678 33.428 61.0758 33.125 60.4091 32.9205C59.75 32.7159 59.0492 32.6136 58.3068 32.6136C56.9659 32.6136 55.7652 32.9508 54.7045 33.625C53.6515 34.2992 52.8182 35.2879 52.2045 36.5909C51.5985 37.8939 51.2955 39.4848 51.2955 41.3636C51.2955 43.2576 51.5985 44.8561 52.2045 46.1591C52.8182 47.4621 53.6553 48.447 54.7159 49.1136C55.7765 49.7803 56.9697 50.1136 58.2955 50.1136C59.0303 50.1136 59.7273 50.0152 60.3864 49.8182C61.053 49.6136 61.6553 49.3144 62.1932 48.9205C62.7311 48.5265 63.1856 48.0455 63.5568 47.4773C63.9356 46.9015 64.197 46.2424 64.3409 45.5L67.8864 45.5114C67.697 46.6553 67.3295 47.7083 66.7841 48.6705C66.2462 49.625 65.553 50.4508 64.7045 51.1477C63.8636 51.8371 62.9015 52.3712 61.8182 52.75C60.7348 53.1288 59.553 53.3182 58.2727 53.3182C56.2576 53.3182 54.4621 52.8409 52.8864 51.8864C51.3106 50.9242 50.0682 49.5492 49.1591 47.7614C48.2576 45.9735 47.8068 43.8409 47.8068 41.3636C47.8068 38.8788 48.2614 36.7462 49.1705 34.9659C50.0795 33.178 51.322 31.8068 52.8977 30.8523C54.4735 29.8902 56.2652 29.4091 58.2727 29.4091C59.5076 29.4091 60.6591 29.5871 61.7273 29.9432C62.803 30.2917 63.7689 30.8068 64.625 31.4886C65.4811 32.1629 66.1894 32.9886 66.75 33.9659C67.3106 34.9356 67.6894 36.0455 67.8864 37.2955ZM95.024 41.3636C95.024 43.8485 94.5694 45.9848 93.6603 47.7727C92.7513 49.553 91.505 50.9242 89.9217 51.8864C88.3459 52.8409 86.5543 53.3182 84.5467 53.3182C82.5316 53.3182 80.7323 52.8409 79.149 51.8864C77.5732 50.9242 76.3308 49.5492 75.4217 47.7614C74.5126 45.9735 74.0581 43.8409 74.0581 41.3636C74.0581 38.8788 74.5126 36.7462 75.4217 34.9659C76.3308 33.178 77.5732 31.8068 79.149 30.8523C80.7323 29.8902 82.5316 29.4091 84.5467 29.4091C86.5543 29.4091 88.3459 29.8902 89.9217 30.8523C91.505 31.8068 92.7513 33.178 93.6603 34.9659C94.5694 36.7462 95.024 38.8788 95.024 41.3636ZM91.5467 41.3636C91.5467 39.4697 91.2399 37.875 90.6262 36.5795C90.0202 35.2765 89.1869 34.2917 88.1262 33.625C87.0732 32.9508 85.88 32.6136 84.5467 32.6136C83.2058 32.6136 82.0088 32.9508 80.9558 33.625C79.9028 34.2917 79.0694 35.2765 78.4558 36.5795C77.8497 37.875 77.5467 39.4697 77.5467 41.3636C77.5467 43.2576 77.8497 44.8561 78.4558 46.1591C79.0694 47.4545 79.9028 48.4394 80.9558 49.1136C82.0088 49.7803 83.2058 50.1136 84.5467 50.1136C85.88 50.1136 87.0732 49.7803 88.1262 49.1136C89.1869 48.4394 90.0202 47.4545 90.6262 46.1591C91.2399 44.8561 91.5467 43.2576 91.5467 41.3636ZM102.122 53V29.7273H105.633V49.9773H116.179V53H102.122ZM122.904 53V29.7273H126.416V49.9773H136.961V53H122.904ZM143.687 53V29.7273H158.278V32.75H147.198V39.8409H157.516V42.8523H147.198V49.9773H158.414V53H143.687ZM185.018 37.2955H181.472C181.336 36.5379 181.082 35.8712 180.711 35.2955C180.34 34.7197 179.885 34.2311 179.347 33.8295C178.809 33.428 178.207 33.125 177.54 32.9205C176.881 32.7159 176.18 32.6136 175.438 32.6136C174.097 32.6136 172.896 32.9508 171.836 33.625C170.783 34.2992 169.949 35.2879 169.336 36.5909C168.73 37.8939 168.427 39.4848 168.427 41.3636C168.427 43.2576 168.73 44.8561 169.336 46.1591C169.949 47.4621 170.787 48.447 171.847 49.1136C172.908 49.7803 174.101 50.1136 175.427 50.1136C176.162 50.1136 176.859 50.0152 177.518 49.8182C178.184 49.6136 178.787 49.3144 179.324 48.9205C179.862 48.5265 180.317 48.0455 180.688 47.4773C181.067 46.9015 181.328 46.2424 181.472 45.5L185.018 45.5114C184.828 46.6553 184.461 47.7083 183.915 48.6705C183.377 49.625 182.684 50.4508 181.836 51.1477C180.995 51.8371 180.033 52.3712 178.949 52.75C177.866 53.1288 176.684 53.3182 175.404 53.3182C173.389 53.3182 171.593 52.8409 170.018 51.8864C168.442 50.9242 167.199 49.5492 166.29 47.7614C165.389 45.9735 164.938 43.8409 164.938 41.3636C164.938 38.8788 165.393 36.7462 166.302 34.9659C167.211 33.178 168.453 31.8068 170.029 30.8523C171.605 29.8902 173.396 29.4091 175.404 29.4091C176.639 29.4091 177.79 29.5871 178.859 29.9432C179.934 30.2917 180.9 30.8068 181.756 31.4886C182.612 32.1629 183.321 32.9886 183.881 33.9659C184.442 34.9356 184.821 36.0455 185.018 37.2955ZM190.792 32.75V29.7273H208.803V32.75H201.542V53H198.042V32.75H190.792ZM215.503 53V29.7273H230.094V32.75H219.014V39.8409H229.333V42.8523H219.014V49.9773H230.23V53H215.503ZM237.504 53V29.7273H245.8C247.603 29.7273 249.099 30.0379 250.288 30.6591C251.485 31.2803 252.379 32.1402 252.97 33.2386C253.561 34.3295 253.857 35.5909 253.857 37.0227C253.857 38.447 253.557 39.7008 252.959 40.7841C252.368 41.8598 251.474 42.697 250.277 43.2955C249.088 43.8939 247.591 44.1932 245.788 44.1932H239.504V41.1705H245.47C246.607 41.1705 247.531 41.0076 248.243 40.6818C248.963 40.3561 249.489 39.8826 249.822 39.2614C250.156 38.6402 250.322 37.8939 250.322 37.0227C250.322 36.1439 250.152 35.3826 249.811 34.7386C249.478 34.0947 248.951 33.6023 248.232 33.2614C247.519 32.9129 246.584 32.7386 245.425 32.7386H241.016V53H237.504ZM248.993 42.5L254.743 53H250.743L245.107 42.5H248.993Z" fill="#858585"/>
<path d="M-5 55C-5 21.8629 21.8629 -5 55 -5H247C280.137 -5 307 21.8629 307 55H297C297 27.3858 274.614 5 247 5H55C27.3858 5 5 27.3858 5 55H-5ZM302 83H0H302ZM20 83C6.19288 83 -5 71.8071 -5 58V55C-5 21.8629 21.8629 -5 55 -5V5C27.3858 5 5 27.3858 5 55V63C5 74.0457 11.7157 83 20 83ZM247 -5C280.137 -5 307 21.8629 307 55V58C307 71.8071 295.807 83 282 83C290.284 83 297 74.0457 297 63V55C297 27.3858 274.614 5 247 5V-5Z" fill="#D32F2F" mask="url(#path-1-inside-1_38_3033)"/>
</svg>
