<svg width="207" height="168" viewBox="0 0 207 168" fill="none" xmlns="http://www.w3.org/2000/svg">
<g filter="url(#filter0_d_3_32)">
<path fill-rule="evenodd" clip-rule="evenodd" d="M180.448 0C185.525 0 189.64 4.11528 189.64 9.19174V107.882C189.64 112.958 185.525 117.074 180.448 117.074H121.912V133.038H134.643C135.011 133.038 135.365 133.178 135.633 133.429L143.408 140.685C144.371 141.584 143.735 143.198 142.418 143.198H47.342C46.0093 143.198 45.3812 141.552 46.3749 140.664L54.4954 133.408C54.7615 133.17 55.1057 133.038 55.4625 133.038H67.7288V117.074H9.19174C4.11528 117.074 0 112.958 0 107.882V9.19174C0 4.11529 4.11528 0 9.19174 0H180.448ZM169.805 9.67552C174.882 9.67552 178.997 13.7908 178.997 18.8673V98.2065C178.997 103.283 174.882 107.398 169.805 107.398H19.8348C14.7584 107.398 10.6431 103.283 10.6431 98.2065V18.8673C10.6431 13.7908 14.7584 9.67552 19.8348 9.67552H169.805ZM78.8556 120.944C77.5197 120.944 76.4367 122.027 76.4367 123.363C76.4367 124.699 77.5197 125.782 78.8556 125.782H110.785C112.121 125.782 113.204 124.699 113.204 123.363C113.204 122.027 112.121 120.944 110.785 120.944H78.8556ZM161.031 149.487H29.0629L15.5287 161.581H173.989L161.031 149.487ZM29.0629 147.068C28.4682 147.068 27.8945 147.287 27.4511 147.683L13.9169 159.777C12.2607 161.257 13.3076 164 15.5287 164H173.989C176.184 164 177.244 161.311 175.639 159.813L162.681 147.718C162.233 147.3 161.643 147.068 161.031 147.068H29.0629ZM179.587 147.068C177.674 147.068 176.1 148.676 176.618 150.517C178.02 155.503 181.966 158.678 185.707 158.678H199.693C201.606 158.678 203.181 157.082 202.819 155.204C201.861 150.233 199.031 147.068 193.573 147.068L179.587 147.068Z" fill="#D32F2F"/>
</g>
<g filter="url(#filter1_d_3_32)">
<path fill-rule="evenodd" clip-rule="evenodd" d="M126.089 42.3677L123.872 53.1161L115.672 45.8222L119.795 44.4549C119.664 44.2301 119.53 44.0072 119.393 43.7864C117.603 40.9157 115.261 38.4501 112.502 36.5288C109.743 34.6074 106.618 33.2665 103.304 32.5835C99.9907 31.9004 96.5517 31.8884 93.1834 32.5511C92.6684 32.6524 92.1687 32.3171 92.0674 31.802C91.966 31.287 92.3014 30.7874 92.8164 30.686C96.4296 29.9751 100.124 29.987 103.688 30.7218C107.252 31.4565 110.616 32.8996 113.588 34.9688C116.56 37.0381 119.08 39.6926 121.006 42.7806C121.224 43.1306 121.434 43.4853 121.636 43.8445L126.089 42.3677ZM85.6916 45.1331C85.6916 51.1933 80.7788 56.106 74.7187 56.106C68.6586 56.106 63.7458 51.1933 63.7458 45.1331C63.7458 39.073 68.6586 34.1603 74.7187 34.1603C80.7788 34.1603 85.6916 39.073 85.6916 45.1331ZM74.7187 40.744C72.2947 40.744 70.3296 42.709 70.3296 45.1331L65.2821 45.1331C65.2821 46.3723 65.5262 47.5994 66.0004 48.7443C66.4747 49.8892 67.1698 50.9295 68.046 51.8058C68.9223 52.6821 69.9626 53.3772 71.1075 53.8514C72.2524 54.3257 73.4795 54.5697 74.7188 54.5697C75.958 54.5697 77.1851 54.3257 78.33 53.8514C79.4749 53.3772 80.5152 52.6821 81.3915 51.8058C82.2678 50.9295 82.9629 49.8893 83.4371 48.7443C83.9113 47.5994 84.1554 46.3723 84.1554 45.1331H79.1079C79.1078 42.709 77.1428 40.744 74.7187 40.744ZM74.7187 48.2056C76.4155 48.2056 77.7911 46.83 77.7911 45.1332C77.7911 43.4363 76.4155 42.0608 74.7187 42.0608C73.0218 42.0608 71.6463 43.4363 71.6463 45.1332C71.6463 46.83 73.0218 48.2056 74.7187 48.2056ZM125.73 73.013C125.73 79.0732 120.817 83.9859 114.757 83.9859C108.697 83.9859 103.784 79.0732 103.784 73.013C103.784 66.9529 108.697 62.0402 114.757 62.0402C120.817 62.0402 125.73 66.9529 125.73 73.013ZM124.193 73.0131H119.146C119.146 70.589 117.181 68.6239 114.757 68.6239C112.333 68.6239 110.368 70.589 110.368 73.013L105.32 73.013C105.32 74.2523 105.564 75.4794 106.038 76.6243C106.513 77.7692 107.208 78.8095 108.084 79.6858C108.96 80.562 110.001 81.2571 111.146 81.7314C112.29 82.2056 113.518 82.4497 114.757 82.4497C115.996 82.4497 117.223 82.2056 118.368 81.7314C119.513 81.2571 120.553 80.5621 121.43 79.6858C122.306 78.8095 123.001 77.7692 123.475 76.6243C123.949 75.4794 124.193 74.2523 124.193 73.0131ZM114.757 76.0856C116.454 76.0856 117.829 74.71 117.829 73.0132C117.829 71.3163 116.454 69.9408 114.757 69.9408C113.06 69.9408 111.684 71.3163 111.684 73.0132C111.684 74.71 113.06 76.0856 114.757 76.0856ZM67.6087 65L65.392 75.7484L69.8452 74.2716C70.0471 74.6308 70.2572 74.9856 70.4754 75.3355C72.4009 78.4235 74.9214 81.0781 77.893 83.1473C80.8646 85.2166 84.2287 86.6597 87.793 87.3944C91.3572 88.1291 95.0514 88.1411 98.6645 87.4301C99.1796 87.3288 99.5149 86.8291 99.4136 86.3141C99.3123 85.7991 98.8126 85.4637 98.2976 85.565C94.9292 86.2278 91.4903 86.2157 88.1767 85.5327C84.8633 84.8496 81.7385 83.5087 78.9793 81.5874C76.2201 79.6661 73.8784 77.2004 72.0883 74.3297C71.9507 74.1089 71.8165 73.8861 71.6857 73.6612L75.8088 72.2939L67.6087 65Z" fill="white"/>
</g>
<defs>
<filter id="filter0_d_3_32" x="0" y="0" width="206.871" height="168" filterUnits="userSpaceOnUse" color-interpolation-filters="sRGB">
<feFlood flood-opacity="0" result="BackgroundImageFix"/>
<feColorMatrix in="SourceAlpha" type="matrix" values="0 0 0 0 0 0 0 0 0 0 0 0 0 0 0 0 0 0 127 0" result="hardAlpha"/>
<feOffset dx="4" dy="4"/>
<feComposite in2="hardAlpha" operator="out"/>
<feColorMatrix type="matrix" values="0 0 0 0 0 0 0 0 0 0 0 0 0 0 0 0 0 0 1 0"/>
<feBlend mode="normal" in2="BackgroundImageFix" result="effect1_dropShadow_3_32"/>
<feBlend mode="normal" in="SourceGraphic" in2="effect1_dropShadow_3_32" result="shape"/>
</filter>
<filter id="filter1_d_3_32" x="63.7458" y="30.1616" width="64.3431" height="59.7929" filterUnits="userSpaceOnUse" color-interpolation-filters="sRGB">
<feFlood flood-opacity="0" result="BackgroundImageFix"/>
<feColorMatrix in="SourceAlpha" type="matrix" values="0 0 0 0 0 0 0 0 0 0 0 0 0 0 0 0 0 0 127 0" result="hardAlpha"/>
<feOffset dx="2" dy="2"/>
<feComposite in2="hardAlpha" operator="out"/>
<feColorMatrix type="matrix" values="0 0 0 0 0 0 0 0 0 0 0 0 0 0 0 0 0 0 1 0"/>
<feBlend mode="normal" in2="BackgroundImageFix" result="effect1_dropShadow_3_32"/>
<feBlend mode="normal" in="SourceGraphic" in2="effect1_dropShadow_3_32" result="shape"/>
</filter>
</defs>
</svg>
