<svg width="53" height="53" viewBox="0 0 53 53" fill="none" xmlns="http://www.w3.org/2000/svg">
<path fill-rule="evenodd" clip-rule="evenodd" d="M26.3732 3.6035C13.7978 3.6035 3.6035 13.7978 3.6035 26.3732C3.6035 38.9485 13.7978 49.1429 26.3732 49.1429C38.9485 49.1429 49.1429 38.9485 49.1429 26.3732C49.1429 13.7978 38.9485 3.6035 26.3732 3.6035ZM0.396502 26.3732C0.396502 12.0267 12.0267 0.396502 26.3732 0.396502C40.7197 0.396502 52.3499 12.0267 52.3499 26.3732C52.3499 40.7197 40.7197 52.3499 26.3732 52.3499C12.0267 52.3499 0.396502 40.7197 0.396502 26.3732Z" fill="#D32F2F"/>
<path fill-rule="evenodd" clip-rule="evenodd" d="M26.3732 43.691C35.9375 43.691 43.691 35.9376 43.691 26.3732C43.691 16.8089 35.9375 9.05542 26.3732 9.05542C16.8088 9.05542 9.0554 16.8089 9.0554 26.3732C9.0554 35.9376 16.8088 43.691 26.3732 43.691ZM33.3003 26.3732C33.3003 22.5475 30.1989 19.4461 26.3732 19.4461C22.5475 19.4461 19.4461 22.5475 19.4461 26.3732L11.4799 26.3732C11.4799 28.329 11.8651 30.2656 12.6136 32.0726C13.362 33.8795 14.4591 35.5214 15.842 36.9043C17.225 38.2873 18.8668 39.3843 20.6737 40.1328C22.4807 40.8813 24.4174 41.2665 26.3732 41.2665C28.329 41.2665 30.2657 40.8813 32.0726 40.1328C33.8795 39.3844 35.5214 38.2873 36.9043 36.9044C38.2873 35.5214 39.3843 33.8796 40.1328 32.0726C40.8813 30.2657 41.2665 28.329 41.2665 26.3732H33.3003ZM31.2222 26.3732C31.2222 29.0512 29.0512 31.2222 26.3732 31.2222C23.6952 31.2222 21.5242 29.0512 21.5242 26.3732C21.5242 23.6952 23.6952 21.5242 26.3732 21.5242C29.0512 21.5242 31.2222 23.6952 31.2222 26.3732Z" fill="white"/>
</svg>
